<svg version="1.1" id="Layer_1" xmlns="http://www.w3.org/2000/svg" xmlns:xlink="http://www.w3.org/1999/xlink" x="0px" y="0px" viewBox="0 0 350 101.76652889764648" >
  <!-- <defs id="SvgjsDefs3155"/> -->
  <g id="SvgjsG3156" featurekey="nameFeature-0" transform="matrix(2.2766776323886613,0,0,2.2766776323886613,-5.4804832133535655,-26.95586568608417)" fill="#fff">
    <path d="M17.04 33.36 c-4.76 0 -9.52 0.08 -14.24 0 c-0.08 0 -0.24 0 -0.24 -0.12 c-0.16 -1.88 -0.08 -3.8 -0.04 -5.68 c0.04 -5.04 -0.24 -10.08 -0.04 -15.08 c0 -0.08 0 -0.16 0.08 -0.2 c4.84 -0.2 9.88 -0.16 14.8 -0.2 c0.08 0 0.16 0.04 0.16 0.12 l0 0.04 c-0.08 0.72 0.24 1.84 -0.16 2.4 c-4.08 0.08 -8.12 0.04 -12.16 0.12 c0 2.32 -0.04 4.64 0.04 6.96 l0.76 0 c2.92 0.12 6.04 -0.16 8.88 0.04 c-0.24 0.64 0.44 2.56 -0.6 2.36 c-3.04 -0.04 -6.08 0 -9.12 0 c0.04 2.28 0.08 4.52 0.12 6.8 c4.08 -0.04 8.12 -0.08 12.2 -0.04 c0.08 -0.04 0.16 0 0.16 0.08 c-0.2 0.64 0.32 2.6 -0.6 2.4 z M14.72 21.84 c-0.04 0.04 -0.04 0.08 0 0.08 l0 -0.08 z M10.32 39.92 c-0.72 0.24 -1.24 -1.12 -1.88 -1.48 c-0.2 -0.76 1.12 -1.28 1.44 -1.96 c0.72 -0.24 1.28 1.08 1.88 1.44 c0.24 0.76 -1.12 1.32 -1.44 2 z M46.86 37.96 c-1.4 2 -5.84 2.24 -8.08 2.24 l0.04 0 c-3.72 -0.16 -7.16 -2 -10.84 -2.32 c-0.52 -0.04 -1.04 -0.04 -1.52 0 c-0.56 0.08 -1.08 0.16 -1.64 0.28 l-0.08 0.04 c-1 0.28 -1.96 0.72 -2.68 1.48 l0.04 0 c-0.16 0.12 -0.32 0.28 -0.48 0.28 c-0.12 0.04 -0.24 0.04 -0.36 0.04 l-0.04 0 c-0.16 0.04 -0.36 0 -0.52 0 c-0.08 -0.84 0 -1.72 -0.04 -2.56 c0 -0.32 0 -0.64 0.04 -0.92 l0 -0.92 l0 -1.88 c0.04 -6 -0.16 -12 -0.04 -18.04 l0 0.04 c0.04 -1.2 0 -2.4 0.04 -3.56 c0.68 -0.28 1.68 -0.04 2.48 -0.12 c0.56 1.72 0 4.12 0.16 6.04 l0 0 c-0.08 5.56 0.16 11.16 0.04 16.72 l0 0.56 l0 0.48 c0.4 -0.2 0.84 -0.36 1.32 -0.52 l0.08 0 c0.8 -0.2 1.6 -0.32 2.4 -0.32 c3.88 0 7.68 2.2 11.6 2.32 c0.04 0 0.08 0.04 0.12 0.04 c2.24 0.08 4.52 -0.32 6.6 -1.24 l-0.04 0 c0.44 -0.2 0.84 -0.44 1.24 -0.64 c0.24 0.16 0.08 0.64 0.16 0.92 l0 0.28 l0 1.28 z M46.78 33.12 c-4.76 0 -9.52 0.04 -14.24 -0.04 c-0.08 0.04 -0.24 0 -0.24 -0.08 c-0.16 -1.88 -0.08 -3.76 -0.04 -5.64 c0.04 -5 -0.28 -9.96 -0.04 -14.96 c0 -0.08 0 -0.16 0.08 -0.2 c4.76 -0.2 9.8 -0.16 14.68 -0.16 c0.08 0 0.16 0 0.16 0.12 l0 0.04 c-0.08 0.72 0.2 1.8 -0.2 2.32 c-4 0.12 -8.04 0.08 -12.04 0.16 c0 2.28 -0.04 4.6 0.04 6.88 c0.28 0 0.52 0 0.76 0.04 c2.92 0.08 6 -0.2 8.8 0 c-0.24 0.64 0.44 2.56 -0.6 2.36 c-3 -0.04 -6 0 -9.04 0 c0.08 2.24 0.08 4.48 0.12 6.72 c4.04 -0.04 8.08 -0.08 12.08 -0.04 c0.08 0 0.2 0 0.2 0.08 c-0.2 0.56 0.24 2.4 -0.48 2.4 z M44.34 21.68 l0 0.08 l0 -0.08 z M69.84 37.84 c-2.52 1.84 -5.76 2.6 -8.84 2.32 c-0.2 -0.04 -0.4 -0.04 -0.6 -0.08 c-1.08 -0.08 -2.12 -0.48 -3.12 -0.92 c-0.04 -0.04 -0.12 -0.08 -0.2 -0.12 c-1.84 -0.96 -3.48 -2.36 -4.72 -4.04 c-0.04 -0.08 -0.08 -0.12 -0.12 -0.2 c-1.4 -1.88 -2.24 -4.08 -2.52 -6.4 c-0.08 -0.32 -0.12 -0.68 -0.12 -1.04 l0 -0.72 c-0.04 -0.24 -0.04 -0.48 -0.04 -0.72 c0 -1.36 0.2 -2.76 0.56 -4.08 c0 -0.04 0 -0.08 0.04 -0.08 l0 -0.08 c0 -0.04 0.04 -0.2 0.08 -0.2 c0.04 -0.24 0.12 -0.48 0.2 -0.72 c0 -0.04 0 -0.04 0.04 -0.08 l0 -0.08 c0.04 -0.04 0.04 -0.04 0.04 -0.08 s0 -0.08 0.04 -0.08 c0.72 -2.44 2.2 -4.48 4.24 -5.96 c0.24 -0.2 0.52 -0.4 0.8 -0.56 c1.08 -0.72 2.28 -1.2 3.52 -1.64 c1.08 -0.28 2.16 -0.4 3.28 -0.4 c4.08 0 8.56 1.96 10.48 5.8 c0.08 0.2 0.16 0.36 0.24 0.56 c0.04 0.32 0.6 1.32 0.16 1.4 l0.04 0 l-0.04 0 c-0.72 -0.08 -1.8 0.28 -2.4 -0.12 c-0.08 -0.2 -0.16 -0.4 -0.28 -0.56 c-0.44 -0.88 -1.4 -1.92 -2.16 -2.52 c-1.6 -1.04 -3 -1.68 -4.96 -1.84 c-0.44 -0.08 -0.92 -0.08 -1.36 -0.04 c-1.16 0 -2.72 0.28 -3.76 0.8 c-0.84 0.32 -1.56 0.84 -2.24 1.48 c-2.12 2.12 -3.2 4.32 -3.64 7.32 c-0.16 1.2 -0.28 2.4 -0.16 3.6 c0.64 5.12 3.4 8.96 8.8 9.8 c0.84 0.12 1.68 0.12 2.52 0.04 c1.2 -0.16 2.84 -0.6 3.88 -1.24 c1.32 -0.72 2.28 -1.84 3.12 -3.08 c0.16 -0.28 0.24 -0.56 0.36 -0.84 c0.2 -0.6 0.36 -1.2 0.48 -1.84 l0 0.04 c0.24 -1.12 0.36 -2.28 0.36 -3.44 c-0.24 0.04 -0.44 0.04 -0.68 0.08 c-1.92 0.36 -4.28 1.16 -6.4 1.16 c-1.4 0 -2.64 -0.32 -3.68 -1.28 c-0.28 -0.2 -0.28 -2.24 0.12 -2.16 c0.36 0.08 0.64 0.44 1 0.56 c0.32 0.12 0.68 0.2 1.04 0.28 c0.84 0.16 1.68 0.24 2.56 0.2 l0 0 c1.88 0.04 4.36 -1.28 6.4 -1.28 c0.8 0 1.56 0.2 2.16 0.84 c0.28 3.68 -0.32 7.64 -2.72 10.56 c-0.52 0.64 -1.12 1.2 -1.8 1.68 z M72 25 l-0.08 0 l0.08 0 z M93.5 33.12 c-0.76 0 -1.72 0.2 -2.36 0 c-0.04 -0.08 -0.04 -0.12 -0.08 -0.16 c-0.04 -0.16 -0.08 -0.28 -0.12 -0.44 c-0.72 -1.88 -1.28 -3.84 -2.12 -5.68 c-2.72 -0.04 -5.48 -0.04 -8.2 0 c-0.84 1.84 -1.4 3.8 -2.12 5.68 c-0.04 0.16 -0.08 0.28 -0.12 0.44 c-0.04 0.04 -0.04 0.08 -0.08 0.16 c-0.64 0.2 -1.6 0 -2.36 0 c-0.96 0.12 0.88 -3.08 0.92 -3.76 c2.16 -5.76 4.36 -11.6 6.52 -17.32 c0.84 -0.04 1.84 -0.04 2.68 0 c2.56 6.96 5.32 13.96 7.8 20.96 c0 0.16 -0.24 0.08 -0.36 0.12 z M84.69999999999999 16.12 c-1.16 2.84 -2.32 5.72 -3.4 8.6 c2.28 -0.04 4.52 -0.08 6.8 -0.08 c-1.08 -2.84 -2.2 -5.68 -3.4 -8.52 z M84.97999999999999 39.8 c-0.76 0.24 -1.28 -1.12 -1.88 -1.44 c-0.24 -0.76 1.04 -1.28 1.36 -1.92 c0.68 -0.48 1.32 1.08 1.92 1.36 c0.24 0.76 -1.08 1.32 -1.4 2 z M111.31999999999998 34.6 c-0.92 3.84 -4.44 5.68 -7.96 5.68 c-4 0 -7.96 -2.4 -8 -6.92 c0.92 -0.04 1.84 -0.04 2.8 0 c0.48 1.44 0.92 2.68 2.44 3.56 c0.88 0.48 1.92 0.72 2.96 0.72 c1.96 0 4 -0.84 4.92 -2.56 c1.56 -3.48 -0.6 -6.72 -4.2 -7.4 c-2.68 -0.68 -5.68 -1.08 -7.52 -3.36 c-0.88 -1 -1.36 -2.28 -1.48 -3.6 c-0.76 -5.32 3.36 -8.88 8.12 -8.88 c0.8 0 1.56 0.08 2.36 0.28 c2.96 0.56 5.88 3.64 5.68 6.64 c-0.96 0.08 -1.88 0.04 -2.84 0 c-0.56 -2.04 -1.8 -3.88 -4.24 -4.16 c-7.36 -1.24 -9.28 8.12 -2.04 9.8 c1.2 0.36 2.44 0.56 3.6 0.92 c4.2 0.88 6.48 5.24 5.4 9.28 z M99.79999999999998 23.52 l0 0 z M108.63999999999999 35.24 l0 -0.08 c0 0.04 -0.04 0.08 -0.04 0.08 l0.04 0 z M116.53999999999999 15.48 c-0.72 0.28 -1.24 -1.04 -1.84 -1.4 c-0.28 -0.72 1.08 -1.28 1.4 -1.92 c0.72 -0.28 1.24 1.08 1.84 1.4 c0.2 0.76 -1.08 1.28 -1.4 1.92 z M117.53999999999999 40 c-0.84 -0.08 -2.04 0.2 -2.68 -0.16 c0 -2.96 0.04 -5.92 0.12 -8.88 l0 -1.08 c0.08 -3.28 -0.04 -6.6 0 -9.92 l0 -0.04 c0.08 -0.28 -0.12 -0.72 0.12 -0.92 c0.76 0.08 1.72 -0.16 2.4 0.08 c0.16 2.44 0.12 4.88 0.04 7.32 c0 3.4 0 6.84 0.12 10.24 c-0.08 1.08 0.2 2.4 -0.12 3.36 z M135.43999999999997 40.16 c0 0.08 -0.12 0.08 -0.16 0.04 c-0.12 -0.12 -0.24 -0.2 -0.4 -0.28 c-0.44 -0.28 -1 -0.48 -1.48 -0.64 c-1.16 -0.36 -2.44 -0.36 -3.64 -0.24 l-0.08 0 c-0.76 0.12 -1.44 0.24 -2.12 0.44 c-0.24 0.04 -0.52 0.12 -0.76 0.16 c-1.52 0.4 -3.12 0.52 -4.64 0.4 c-0.2 -2.08 0 -4.6 -0.04 -6.72 c0.04 -6 -0.16 -11.64 -0.04 -17.6 c0.04 -1.16 0 -2.36 0.04 -3.52 c0 -0.04 0.04 -0.08 0.08 -0.08 c0.76 -0.2 1.64 0 2.44 -0.04 c0.56 1.68 0 4.04 0.16 5.96 c-0.08 5.56 0.16 10.72 0.04 16.28 c0 0.56 0 1.12 -0.04 1.68 l0 1.44 c0.36 -0.08 0.76 -0.16 1.12 -0.24 c0.96 -0.24 1.92 -0.6 2.92 -0.76 c0.04 0 0.12 -0.04 0.16 -0.04 l0.12 0 c0.2 -0.04 0.28 -0.04 0.4 -0.04 l0 -0.04 c0.52 -0.04 1.04 -0.12 1.6 -0.12 c0.72 0 1.44 0.08 2.16 0.28 c0.16 0.08 0.32 0.16 0.52 0.2 c0.04 0.04 0.08 0.04 0.12 0.08 c0.44 0.2 0.84 0.44 1.2 0.76 c0.08 0.12 0.32 0.2 0.4 0.4 c0.08 0.4 0 1.24 0.04 1.68 l-0.04 0 l0 0.32 c0 0.08 0.04 0.24 -0.08 0.24 z M156.14 40.2 c-0.8 0.04 -1.68 -0.04 -2.52 0 c-1.36 -0.4 -2.12 -2.24 -3 -3.32 c-0.2 -0.28 -0.4 -0.6 -0.56 -0.88 c-0.04 -0.16 -0.12 -0.28 -0.2 -0.44 c-1.8 -3.64 -4.52 -7.24 -8.84 -7.84 c-0.2 -0.04 -0.4 -0.04 -0.6 -0.08 c0.16 4.12 0.04 8.2 0.08 12.32 c0 0.04 -0.08 0.08 -0.12 0.08 c-0.24 0.04 -0.52 0.04 -0.76 0.04 l-0.6 0 c-0.68 -0.08 -1.44 0.24 -1.24 -0.8 c0.08 -5.52 0 -11 -0.08 -16.52 l0 -4.64 l0 -0.6 c0.04 -1.76 0 -3.52 0.04 -5.28 c0.68 -0.28 1.64 0 2.4 -0.08 c0.4 4 0 8.64 0.24 12.84 c1.24 -1.48 2.44 -3 3.72 -4.44 c0 -0.04 0.04 -0.08 0.08 -0.12 l0.08 -0.08 c0 -0.04 0.04 -0.04 0.08 -0.08 l-0.04 0 c1.48 -1.64 2.84 -3.32 4.32 -4.96 c0.92 -1.04 1.8 -2.16 2.76 -3.2 c0.16 -0.12 3.44 -0.16 2.92 0.24 c-0.08 0.08 -0.16 0.2 -0.24 0.28 l-0.68 0.76 c-0.52 0.64 -1.16 1.28 -1.72 1.92 l-0.2 0.2 l-0.48 0.56 c-2.72 3.16 -5.36 6.44 -8 9.72 c4.44 1.56 7.52 5.16 9.32 9.4 c0.88 1.4 1.76 2.84 2.92 4.04 c0.2 0.36 0.92 0.6 0.92 0.96 z M152.45999999999998 35.76 l0.04 0.08 c0 0.04 0.04 0.04 0.04 0.08 c-0.04 -0.04 -0.08 -0.12 -0.08 -0.16 z"/>
  </g>
  <g id="SvgjsG3157" featurekey="sloganFeature-0" transform="matrix(1.160313357259353,0,0,1.160313357259353,54.027467237331045,78.22376926327509)" fill="#fff">
    <path d="M10.45 18.3 c0.18 0 0.3 0.12 0.3 0.3 l0 1.1 c0 0.18 -0.12 0.3 -0.3 0.3 l-8.45 0 c-0.18 0 -0.3 -0.12 -0.3 -0.3 l0 -13.4 c0 -0.18 0.12 -0.3 0.3 -0.3 l1.27 0 c0.18 0 0.3 0.12 0.3 0.3 l0 12 l6.88 0 z M25.0105 6 c0.18 0 0.3 0.12 0.3 0.3 l0 8.04 c0 3.98 -2.15 5.95 -5.67 5.95 c-3.51 0 -5.66 -1.97 -5.66 -5.95 l0 -8.04 c0 -0.18 0.12 -0.3 0.3 -0.3 l1.27 0 c0.18 0 0.3 0.12 0.3 0.3 l0 8.04 c0 2.83 1.5 4.18 3.79 4.18 c2.3 0 3.8 -1.35 3.8 -4.18 l0 -8.04 c0 -0.18 0.12 -0.3 0.3 -0.3 l1.27 0 z M39.081 19.64 c0.12 0.2 0.04 0.36 -0.2 0.36 l-1.34 0 c-0.16 0 -0.28 -0.06 -0.36 -0.2 l-3.36 -5.35 l-3.36 5.35 c-0.08 0.14 -0.2 0.2 -0.36 0.2 l-1.35 0 c-0.24 0 -0.32 -0.16 -0.2 -0.36 l4.26 -6.78 l-4.08 -6.5 c-0.12 -0.21 -0.04 -0.36 0.2 -0.36 l1.35 0 c0.16 0 0.28 0.06 0.36 0.2 l3.18 5.06 l3.18 -5.06 c0.08 -0.14 0.2 -0.2 0.36 -0.2 l1.34 0 c0.24 0 0.32 0.15 0.2 0.36 l-4.08 6.5 z M53.3515 6 c0.18 0 0.3 0.12 0.3 0.3 l0 8.04 c0 3.98 -2.15 5.95 -5.67 5.95 c-3.51 0 -5.66 -1.97 -5.66 -5.95 l0 -8.04 c0 -0.18 0.12 -0.3 0.3 -0.3 l1.27 0 c0.18 0 0.3 0.12 0.3 0.3 l0 8.04 c0 2.83 1.5 4.18 3.79 4.18 c2.3 0 3.8 -1.35 3.8 -4.18 l0 -8.04 c0 -0.18 0.12 -0.3 0.3 -0.3 l1.27 0 z M64.922 14.57 l2.68 5.08 c0.11 0.21 0.01 0.35 -0.22 0.35 l-1.32 0 c-0.16 0 -0.27 -0.07 -0.35 -0.22 l-2.58 -4.99 l-0.29 0 l-3.39 0 l0 4.91 c0 0.18 -0.12 0.3 -0.3 0.3 l-1.27 0 c-0.18 0 -0.3 -0.12 -0.3 -0.3 l0 -13.4 c0 -0.18 0.12 -0.3 0.3 -0.3 l4.96 0 c3.69 0 5.04 1.56 5.04 4.39 c0 2.22 -0.83 3.66 -2.96 4.18 z M59.452 7.699999999999999 l0 5.39 l3.52 0 c1.86 0 3.1 -0.5 3.1 -2.7 c0 -2.19 -1.24 -2.69 -3.1 -2.69 l-3.52 0 z M82.6525 6 c0.24 0 0.33 0.15 0.2 0.36 l-5.25 8.21 l0 5.13 c0 0.18 -0.12 0.3 -0.3 0.3 l-1.27 0 c-0.18 0 -0.3 -0.12 -0.3 -0.3 l0 -5.13 l-5.26 -8.21 c-0.13 -0.21 -0.04 -0.36 0.2 -0.36 l1.47 0 c0.16 0 0.27 0.06 0.36 0.2 l4.16 6.51 l4.16 -6.51 c0.09 -0.14 0.2 -0.2 0.36 -0.2 l1.47 0 z M105.50349999999999 6 c0.18 0 0.3 0.12 0.3 0.3 l0 8.04 c0 3.98 -2.15 5.95 -5.67 5.95 c-3.51 0 -5.66 -1.97 -5.66 -5.95 l0 -8.04 c0 -0.18 0.12 -0.3 0.3 -0.3 l1.27 0 c0.18 0 0.3 0.12 0.3 0.3 l0 8.04 c0 2.83 1.5 4.18 3.79 4.18 c2.3 0 3.8 -1.35 3.8 -4.18 l0 -8.04 c0 -0.18 0.12 -0.3 0.3 -0.3 l1.27 0 z M119.994 6 c0.18 0 0.3 0.12 0.3 0.3 l0 13.4 c0 0.16 -0.1 0.28 -0.25 0.3 l-1.64 0 c-0.16 0 -0.28 -0.06 -0.36 -0.2 l-6.44 -11.04 l0 10.94 c0 0.18 -0.12 0.3 -0.3 0.3 l-1.27 0 c-0.18 0 -0.3 -0.12 -0.3 -0.3 l0 -13.4 c0 -0.17 0.1 -0.28 0.26 -0.3 l1.63 0 c0.16 0 0.28 0.06 0.36 0.2 l6.44 11.03 l0 -10.93 c0 -0.18 0.12 -0.3 0.3 -0.3 l1.27 0 z M133.6745 6 c0.18 0 0.3 0.12 0.3 0.3 l0 1.1 c0 0.18 -0.12 0.3 -0.3 0.3 l-7.23 0 l0 4.28 l6.77 0 c0.18 0 0.3 0.12 0.3 0.3 l0 1.1 c0 0.18 -0.12 0.3 -0.3 0.3 l-6.77 0 l0 6.02 c0 0.18 -0.12 0.3 -0.3 0.3 l-1.27 0 c-0.18 0 -0.3 -0.12 -0.3 -0.3 l0 -13.4 c0 -0.18 0.12 -0.3 0.3 -0.3 l8.8 0 z M144.575 20.26 c-3.96 0 -7.17 -3.2 -7.17 -7.2 c0 -4.02 3.21 -7.22 7.17 -7.22 c3.95 0 7.16 3.2 7.16 7.22 c0 4 -3.21 7.2 -7.16 7.2 z M144.575 18.49 c2.97 0 5.32 -2.4 5.32 -5.43 c0 -3.05 -2.35 -5.45 -5.32 -5.45 c-2.98 0 -5.33 2.4 -5.33 5.45 c0 3.03 2.35 5.43 5.33 5.43 z M164.36549999999997 18.3 c0.18 0 0.3 0.12 0.3 0.3 l0 1.1 c0 0.18 -0.12 0.3 -0.3 0.3 l-8.45 0 c-0.18 0 -0.3 -0.12 -0.3 -0.3 l0 -13.4 c0 -0.18 0.12 -0.3 0.3 -0.3 l1.27 0 c0.18 0 0.3 0.12 0.3 0.3 l0 12 l6.88 0 z M171.896 6 c4.85 0 7.33 3.05 7.33 7 c0 3.94 -2.48 7 -7.33 7 l-3.35 0 c-0.18 0 -0.3 -0.12 -0.3 -0.3 l0 -13.4 c0 -0.18 0.12 -0.3 0.3 -0.3 l3.35 0 z M171.896 18.3 c3.63 0 5.43 -2.01 5.43 -5.3 c0 -3.3 -1.8 -5.3 -5.43 -5.3 l-1.78 0 l0 10.6 l1.78 0 z M191.6065 18.3 c0.18 0 0.3 0.12 0.3 0.3 l0 1.1 c0 0.18 -0.12 0.3 -0.3 0.3 l-8.55 0 c-0.18 0 -0.3 -0.12 -0.3 -0.3 l0 -13.4 c0 -0.18 0.12 -0.3 0.3 -0.3 l8.53 0 c0.18 0 0.3 0.12 0.3 0.3 l0 1.1 c0 0.18 -0.12 0.3 -0.3 0.3 l-6.96 0 l0 4.15 l6.43 0 c0.18 0 0.3 0.12 0.3 0.3 l0 1.1 c0 0.18 -0.12 0.3 -0.3 0.3 l-6.43 0 l0 4.75 l6.98 0 z M199.487 6 c4.85 0 7.33 3.05 7.33 7 c0 3.94 -2.48 7 -7.33 7 l-3.35 0 c-0.18 0 -0.3 -0.12 -0.3 -0.3 l0 -13.4 c0 -0.18 0.12 -0.3 0.3 -0.3 l3.35 0 z M199.487 18.3 c3.63 0 5.43 -2.01 5.43 -5.3 c0 -3.3 -1.8 -5.3 -5.43 -5.3 l-1.78 0 l0 10.6 l1.78 0 z"/>
  </g>
</svg>
